<svg width="72" height="48" viewBox="0 0 72 48" fill="none" xmlns="http://www.w3.org/2000/svg">
<path d="M12.8523 11.4955C12.8523 7.67211 13.6962 3.99536 15.2563 0.546884C6.17617 6.51686 0.414439 15.0392 0.17655 24.5221L0.00073421 24.7162L0.000736237 47.4492L29.9134 47.4492L29.9134 18.0256L13.6917 18.0256C13.1427 15.9097 12.8524 13.7282 12.8524 11.4955L12.8523 11.4955Z" fill="#B3B3B3"/>
<path d="M55.6537 18.0255C55.0736 15.8573 54.7702 13.6196 54.7702 11.3313C54.7702 7.50778 55.6186 3.82657 57.1787 0.377935C47.98 6.42579 42.1876 15.0861 42.0912 24.7154L42.0867 24.7154L42.0867 24.8317L42.0867 24.9696L42.0867 25.112L42.0867 47.4492L71.9993 47.4492L71.9993 18.0253L55.6542 18.0258L55.6537 18.0255Z" fill="#B3B3B3"/>
</svg>
