<svg width="138" height="41" viewBox="0 0 138 41" fill="none" xmlns="http://www.w3.org/2000/svg">
<path d="M0 8.43543C0 7.90362 0.196541 7.43828 0.589624 7.03942C0.956502 6.66715 1.4151 6.48102 1.96541 6.48102C2.43711 6.48102 2.89571 6.66715 3.3412 7.03942C3.70808 7.49147 3.89152 7.9568 3.89152 8.43543V26.0057C3.89152 26.5641 3.70808 27.0294 3.3412 27.4017C2.94812 27.8006 2.48952 28 1.96541 28C1.4151 28 0.956502 27.8006 0.589624 27.4017C0.196541 27.0294 0 26.5641 0 26.0057V8.43543Z" fill="white" fill-opacity="0.9"/>
<path d="M22.235 0.079771C22.7067 0.079771 23.1653 0.265906 23.6108 0.638176C24.0039 1.03704 24.2004 1.51567 24.2004 2.07407C24.2004 2.63248 24.0039 3.09782 23.6108 3.47009C23.2177 3.86895 22.7591 4.06838 22.235 4.06838H10.5211V12.0855V16.0741V25.9259C10.5211 26.4843 10.3246 26.9497 9.93152 27.3219C9.53844 27.7208 9.07985 27.9202 8.55574 27.9202C8.00542 27.9202 7.54682 27.7208 7.17995 27.3219C6.78686 26.9497 6.59032 26.4843 6.59032 25.9259V8.59498C6.59032 8.59498 6.60481 2.56847 6.66912 1.72075C6.86204 0.677403 8.00542 0.079771 8.55574 0.079771H22.235Z" fill="white" fill-opacity="0.9"/>
<path d="M47.4319 23.7721C44.7852 26.5375 41.575 27.9202 37.8014 27.9202C34.0278 27.9202 30.8176 26.5375 28.1709 23.7721C25.5241 21.0066 24.2007 17.7094 24.2007 13.8803C24.2007 10.1576 25.5241 6.91358 28.1709 4.14815C30.8176 1.4359 34.0278 0.079771 37.8014 0.079771C41.6012 0.079771 44.8114 1.4359 47.4319 4.14815C50.0787 6.91358 51.4021 10.1576 51.4021 13.8803C51.4021 17.7094 50.0787 21.0066 47.4319 23.7721ZM44.7197 6.8604C42.8067 4.91928 40.5006 3.94872 37.8014 3.94872C35.1022 3.94872 32.7962 4.91928 30.8831 6.8604C28.9701 8.80152 28.0136 11.1415 28.0136 13.8803C28.0136 16.7521 28.9701 19.1586 30.8831 21.0997C32.8224 23.0674 35.1284 24.0513 37.8014 24.0513C40.4744 24.0513 42.7805 23.0674 44.7197 21.0997C46.6589 19.0522 47.6285 16.6458 47.6285 13.8803C47.6285 11.1681 46.6589 8.82811 44.7197 6.8604Z" fill="white" fill-opacity="0.9"/>
<path d="M71.8621 24.9288C72.1503 25.3808 72.2289 25.8727 72.0979 26.4046C71.9669 26.963 71.6655 27.3884 71.1938 27.6809C70.9318 27.867 70.5911 27.9601 70.1718 27.9601C69.4905 27.9601 68.9271 27.641 68.4816 27.0028L61.9564 16.1538H57.9469V26.0057C57.9469 26.5641 57.7504 27.0294 57.3573 27.4017C56.9904 27.774 56.5318 27.9601 55.9815 27.9601C55.4312 27.9601 54.9726 27.774 54.6057 27.4017C54.2127 27.0294 54.0161 26.5641 54.0161 26.0057V2.15385C54.0161 1.62203 54.2127 1.15669 54.6057 0.757834C54.9988 0.358974 55.4705 0.159544 56.0208 0.159544H64.3542C66.4244 0.159544 68.2195 0.917379 69.7394 2.43305C71.3118 3.97531 72.1241 5.84995 72.1765 8.05698C72.1765 9.81197 71.6393 11.3941 70.5649 12.8034C69.5167 14.1861 68.1147 15.1966 66.3589 15.8348L71.8621 24.9288ZM64.197 12.1652C65.3238 12.1652 66.2803 11.7664 67.0665 10.9687C67.8264 10.1975 68.2326 9.24027 68.285 8.09687C68.2326 6.98006 67.8264 6.03609 67.0665 5.26496C66.3327 4.52042 65.3762 4.14815 64.197 4.14815H57.9469V12.1652H64.197Z" fill="white" fill-opacity="0.9"/>
<path d="M90.8698 0C91.3415 0 91.8001 0.186135 92.2456 0.558404C92.6124 1.01045 92.7959 1.48908 92.7959 1.9943C92.7959 2.47293 92.6124 2.93827 92.2456 3.39031C91.8001 3.76258 91.3415 3.94872 90.8698 3.94872H84.8949V26.0057C84.8949 26.5641 84.7115 27.0294 84.3446 27.4017C83.9515 27.8006 83.4929 28 82.9688 28C82.4185 28 81.9599 27.8006 81.593 27.4017C81.1999 27.0294 81.0034 26.5641 81.0034 26.0057V3.94872H75.0678C74.5175 3.94872 74.0589 3.76258 73.6921 3.39031C73.299 2.99145 73.1024 2.52612 73.1024 1.9943C73.1024 1.4359 73.299 0.957264 73.6921 0.558404C74.0589 0.186135 74.5175 0 75.0678 0H90.8698Z" fill="white" fill-opacity="0.9"/>
<path d="M110.917 23.9316C111.388 23.9316 111.847 24.1178 112.292 24.49C112.685 24.8889 112.882 25.3675 112.882 25.9259C112.882 26.4843 112.685 26.9497 112.292 27.3219C111.899 27.7208 111.441 27.9202 110.917 27.9202H97.1979C96.6476 27.9202 96.189 27.7208 95.8221 27.3219C95.429 26.9497 95.2325 26.4843 95.2325 25.9259V2.07407C95.2325 1.51567 95.429 1.03704 95.8221 0.638176C96.189 0.265906 96.6476 0.079771 97.1979 0.079771H110.917C111.388 0.079771 111.847 0.265906 112.292 0.638176C112.685 1.03704 112.882 1.51567 112.882 2.07407C112.882 2.63248 112.685 3.09782 112.292 3.47009C111.899 3.86895 111.441 4.06838 110.917 4.06838H99.1633V12.0855H108.126C108.597 12.0855 109.056 12.2716 109.501 12.6439C109.894 13.0427 110.091 13.5214 110.091 14.0798C110.091 14.6382 109.894 15.1035 109.501 15.4758C109.108 15.8746 108.65 16.0741 108.126 16.0741H99.1633V23.9316H110.917Z" fill="white" fill-opacity="0.9"/>
<path d="M137.467 24.6496C137.808 25.075 137.939 25.5669 137.86 26.1254C137.781 26.6572 137.532 27.0826 137.113 27.4017C136.746 27.6942 136.353 27.8405 135.934 27.8405C135.331 27.8405 134.82 27.5878 134.401 27.0826L126.775 17.2308L118.795 27.2023C118.376 27.7075 117.865 27.9601 117.262 27.9601C116.843 27.9601 116.45 27.8139 116.083 27.5214C115.664 27.2023 115.415 26.7768 115.336 26.245C115.258 25.6866 115.389 25.1947 115.729 24.7692L124.299 14L115.808 3.31054C115.467 2.88509 115.336 2.39316 115.415 1.83476C115.441 1.32953 115.69 0.890789 116.162 0.518519C116.581 0.17284 117.053 0.0398863 117.577 0.119659C118.101 0.19943 118.533 0.452041 118.874 0.877493L126.775 10.7692L134.519 0.877493C134.859 0.452041 135.292 0.19943 135.816 0.119659C136.34 0.0398863 136.812 0.17284 137.231 0.518519C137.703 0.890789 137.952 1.32953 137.978 1.83476C138.057 2.39316 137.925 2.88509 137.585 3.31054L129.251 14L137.467 24.6496Z" fill="white" fill-opacity="0.9"/>
<path d="M4 2C4 3.10457 3.10457 4 2 4C0.895431 4 0 3.10457 0 2C0 0.895431 0.895431 0 2 0C3.10457 0 4 0.895431 4 2Z" fill="#00FFCF"/>
<path d="M13 12H18V15H13V12Z" fill="#00FFCF"/>
<path d="M15 13.4783C15 14.3187 14.3284 15 13.5 15C12.6716 15 12 14.3187 12 13.4783C12 12.6379 12.6532 12 13.4816 12C14.3101 12 15 12.6379 15 13.4783Z" fill="#00FFCF"/>
<path d="M19 13.4783C19 14.3187 18.3284 15 17.5 15C16.6716 15 16 14.3187 16 13.4783C16 12.6379 16.6532 12 17.4816 12C18.3101 12 19 12.6379 19 13.4783Z" fill="#00FFCF"/>
<path d="M2.45552 33.538C1.93015 33.538 1.51519 33.7345 1.21063 34.1275C0.909873 34.5166 0.759497 35.0526 0.759497 35.7355C0.759497 36.4144 0.902259 36.9444 1.18778 37.3256C1.47712 37.7027 1.87685 37.8913 2.38699 37.8913C2.92758 37.8913 3.35968 37.6908 3.68327 37.2898C4.01068 36.8888 4.17438 36.3489 4.17438 35.67C4.17438 35.003 4.0221 34.4809 3.71754 34.1037C3.41298 33.7266 2.9923 33.538 2.45552 33.538ZM4.87677 41H4.19722V37.3672C3.99926 37.7643 3.74228 38.066 3.4263 38.2725C3.11413 38.4749 2.75246 38.5762 2.34131 38.5762C1.6332 38.5762 1.06596 38.3181 0.639576 37.802C0.213192 37.2819 0 36.5891 0 35.7236C0 34.862 0.216999 34.1712 0.650997 33.6511C1.085 33.127 1.65985 32.865 2.37557 32.865C2.76769 32.865 3.12174 32.9682 3.43772 33.1747C3.7537 33.3811 4.00687 33.673 4.19722 34.0501V33.0615H4.87677V41Z" fill="#999999"/>
<path d="M8.15391 33.0615V35.6998C8.15391 36.5017 8.26241 37.0675 8.47941 37.397C8.70022 37.7266 9.0714 37.8913 9.59296 37.8913C10.1107 37.8913 10.4819 37.7246 10.7065 37.3911C10.9311 37.0576 11.0434 36.4938 11.0434 35.6998V33.0615H11.7401V36.0749C11.7401 36.8968 11.5593 37.5201 11.1976 37.9449C10.8359 38.3658 10.3049 38.5762 9.60438 38.5762C8.90008 38.5762 8.3652 38.3658 7.99973 37.9449C7.63426 37.5201 7.45152 36.8968 7.45152 36.0749V33.0615H8.15391Z" fill="#999999"/>
<path d="M14.6461 35.7593C14.6461 36.4422 14.7926 36.9682 15.0858 37.3375C15.3827 37.7067 15.8053 37.8913 16.3535 37.8913C16.8865 37.8913 17.3053 37.6908 17.6098 37.2898C17.9182 36.8849 18.0724 36.329 18.0724 35.6223C18.0724 34.9752 17.9201 34.467 17.6155 34.0978C17.311 33.7246 16.8941 33.538 16.3649 33.538C15.8358 33.538 15.417 33.7365 15.1086 34.1335C14.8003 34.5266 14.6461 35.0685 14.6461 35.7593ZM18.0609 38.3439V37.3792C17.8934 37.7682 17.6574 38.066 17.3528 38.2725C17.0521 38.4749 16.6961 38.5762 16.285 38.5762C15.5578 38.5762 14.9716 38.3161 14.5261 37.796C14.0845 37.2759 13.8637 36.5891 13.8637 35.7355C13.8637 34.8898 14.0826 34.201 14.5204 33.669C14.9582 33.133 15.5236 32.865 16.2165 32.865C16.6466 32.865 17.0178 32.9643 17.33 33.1628C17.646 33.3573 17.8896 33.6452 18.0609 34.0263V33.0615H18.7633V38.3439H18.0609Z" fill="#999999"/>
<path d="M22.1204 38.3439H21.3952V29.1132H22.1204V38.3439Z" fill="#999999"/>
<path d="M24.6152 31.001C24.6152 30.8462 24.6685 30.7151 24.7751 30.6079C24.8817 30.4968 25.0093 30.4412 25.1577 30.4412C25.3062 30.4412 25.4337 30.4968 25.5403 30.6079C25.6507 30.7151 25.7059 30.8462 25.7059 31.001C25.7059 31.1598 25.6526 31.2928 25.546 31.4C25.4433 31.5072 25.3138 31.5608 25.1577 31.5608C25.0055 31.5608 24.876 31.5072 24.7694 31.4C24.6666 31.2928 24.6152 31.1598 24.6152 31.001ZM24.7923 38.3439V33.0615H25.5175V38.3439H24.7923Z" fill="#999999"/>
<path d="M28.2921 33.6868H27.3613V33.0615H28.2921V30.8938H28.9831V33.0615H29.9996V33.6868H28.9831V38.3439H28.2921V33.6868Z" fill="#999999"/>
<path d="M31.0553 33.0615H31.8034L33.2539 37.1945L34.5901 33.0615H35.3382L32.7171 41H31.9918L32.877 38.3082L31.0553 33.0615Z" fill="#999999"/>
<path d="M40.659 37.403L41.3271 37.004C41.4375 37.2978 41.5974 37.5201 41.8068 37.671C42.0162 37.8179 42.2732 37.8913 42.5777 37.8913C42.8747 37.8913 43.1107 37.8139 43.2858 37.6591C43.461 37.5002 43.5485 37.2898 43.5485 37.0278C43.5485 36.6228 43.204 36.2794 42.5149 35.9975C42.4426 35.9697 42.3855 35.9459 42.3436 35.9261C41.8106 35.7077 41.4375 35.4834 41.2243 35.2531C41.0112 35.0189 40.9046 34.731 40.9046 34.3896C40.9046 33.9409 41.0568 33.5737 41.3614 33.2878C41.666 32.998 42.06 32.8531 42.5435 32.8531C42.9546 32.8531 43.3049 32.9464 43.5942 33.133C43.8835 33.3196 44.0948 33.5856 44.2281 33.931L43.5828 34.3062C43.5028 34.0561 43.3696 33.8655 43.183 33.7345C42.9965 33.6035 42.7681 33.538 42.4978 33.538C42.2541 33.538 42.0524 33.6134 41.8925 33.7643C41.7364 33.9112 41.6583 34.0958 41.6583 34.3181C41.6583 34.5365 41.7364 34.7171 41.8925 34.86C42.0486 35.003 42.3722 35.1598 42.8633 35.3305C43.4191 35.533 43.7922 35.7534 43.9825 35.9916C44.1767 36.2298 44.2738 36.5593 44.2738 36.9801C44.2738 37.4645 44.1082 37.8516 43.7769 38.1414C43.4457 38.4313 43.0003 38.5762 42.4407 38.5762C42.0105 38.5762 41.6393 38.4749 41.3271 38.2725C41.0188 38.066 40.7961 37.7762 40.659 37.403Z" fill="#999999"/>
<path d="M48.7273 37.8913C49.2831 37.8913 49.7532 37.6829 50.1378 37.266C50.5261 36.8452 50.7202 36.331 50.7202 35.7236C50.7202 35.1082 50.528 34.5921 50.1435 34.1752C49.759 33.7583 49.2869 33.5499 48.7273 33.5499C48.1714 33.5499 47.7013 33.7583 47.3168 34.1752C46.9323 34.5921 46.74 35.1082 46.74 35.7236C46.74 36.331 46.9323 36.8452 47.3168 37.266C47.7013 37.6829 48.1714 37.8913 48.7273 37.8913ZM48.7044 38.5762C48.3428 38.5762 47.9963 38.5007 47.6651 38.3499C47.3339 38.203 47.0331 37.9906 46.7628 37.7127C46.5078 37.4506 46.3136 37.1489 46.1804 36.8074C46.0471 36.466 45.9805 36.1007 45.9805 35.7117C45.9805 35.3266 46.049 34.9613 46.1861 34.6159C46.3231 34.2705 46.5192 33.9648 46.7743 33.6988C47.0331 33.4288 47.3282 33.2223 47.6594 33.0794C47.9906 32.9365 48.3389 32.865 48.7044 32.865C49.0775 32.865 49.4316 32.9365 49.7666 33.0794C50.1054 33.2223 50.4061 33.4288 50.6688 33.6988C50.9315 33.9687 51.1314 34.2764 51.2684 34.6218C51.4093 34.9672 51.4797 35.3305 51.4797 35.7117C51.4797 36.0928 51.4112 36.4561 51.2741 36.8015C51.1371 37.1429 50.9391 37.4467 50.6803 37.7127C50.4138 37.9906 50.1092 38.203 49.7666 38.3499C49.4277 38.5007 49.0737 38.5762 48.7044 38.5762Z" fill="#999999"/>
<path d="M53.8032 38.3439V33.6868H52.8553V33.0615H53.8032V31.537C53.8032 30.4769 53.8984 29.7901 54.0887 29.4764C54.2791 29.1588 54.6274 29 55.1338 29C55.2594 29 55.3793 29.0119 55.4935 29.0357C55.6077 29.0556 55.7143 29.0854 55.8133 29.1251L55.682 29.7682C55.5906 29.7206 55.5011 29.6849 55.4136 29.661C55.3298 29.6372 55.2518 29.6253 55.1794 29.6253C54.932 29.6253 54.7569 29.7285 54.6541 29.935C54.5513 30.1375 54.4999 30.5127 54.4999 31.0605V33.0615H55.6134V33.6868H54.4999V38.3439H53.8032Z" fill="#999999"/>
<path d="M57.5144 33.6868H56.5835V33.0615H57.5144V30.8938H58.2053V33.0615H59.2218V33.6868H58.2053V38.3439H57.5144V33.6868Z" fill="#999999"/>
<path d="M62.1963 38.6834L60.1748 33.0615H60.9114L62.2305 36.867L63.8238 32.7816L65.4113 36.867L66.7361 33.0615H67.4728L65.4456 38.6834L63.8352 34.4789L62.1963 38.6834Z" fill="#999999"/>
<path d="M69.5793 35.7593C69.5793 36.4422 69.7258 36.9682 70.019 37.3375C70.3159 37.7067 70.7385 37.8913 71.2867 37.8913C71.8197 37.8913 72.2385 37.6908 72.543 37.2898C72.8514 36.8849 73.0056 36.329 73.0056 35.6223C73.0056 34.9752 72.8533 34.467 72.5487 34.0978C72.2442 33.7246 71.8273 33.538 71.2981 33.538C70.769 33.538 70.3502 33.7365 70.0418 34.1335C69.7335 34.5266 69.5793 35.0685 69.5793 35.7593ZM72.9942 38.3439V37.3792C72.8266 37.7682 72.5906 38.066 72.286 38.2725C71.9853 38.4749 71.6293 38.5762 71.2182 38.5762C70.4911 38.5762 69.9048 38.3161 69.4594 37.796C69.0177 37.2759 68.7969 36.5891 68.7969 35.7355C68.7969 34.8898 69.0158 34.201 69.4536 33.669C69.8914 33.133 70.4568 32.865 71.1497 32.865C71.5798 32.865 71.951 32.9643 72.2632 33.1628C72.5792 33.3573 72.8228 33.6452 72.9942 34.0263V33.0615H73.6965V38.3439H72.9942Z" fill="#999999"/>
<path d="M76.9851 34.1216C77.244 33.665 77.4972 33.3414 77.7446 33.1509C77.9959 32.9603 78.2871 32.865 78.6183 32.865C78.7173 32.865 78.8163 32.8749 78.9153 32.8948C79.0181 32.9146 79.1189 32.9424 79.2179 32.9782L78.9895 33.669C78.9134 33.6452 78.8334 33.6253 78.7497 33.6094C78.6697 33.5935 78.5917 33.5856 78.5155 33.5856C78.0929 33.5856 77.7313 33.7921 77.4305 34.205C77.1336 34.6179 76.9851 35.132 76.9851 35.7474V38.3439H76.2827V33.0615H76.9851V34.1216Z" fill="#999999"/>
<path d="M84.1911 35.0983C84.1568 34.6139 84.0026 34.2387 83.7285 33.9727C83.4544 33.7067 83.0832 33.5737 82.615 33.5737C82.1886 33.5737 81.8307 33.7127 81.5414 33.9906C81.2559 34.2685 81.0903 34.6377 81.0446 35.0983H84.1911ZM85.0248 35.7236H80.9989C81.0179 36.4065 81.1816 36.9424 81.49 37.3315C81.7984 37.7206 82.2114 37.9151 82.7292 37.9151C83.1023 37.9151 83.4297 37.8099 83.7114 37.5995C83.9931 37.3891 84.2272 37.0715 84.4138 36.6467L85.0591 37.0159C84.8002 37.5519 84.4823 37.9469 84.1054 38.201C83.7323 38.4511 83.2736 38.5762 82.7292 38.5762C81.9868 38.5762 81.3853 38.3181 80.9247 37.802C80.4678 37.2819 80.2394 36.601 80.2394 35.7593C80.2394 34.8938 80.4659 34.195 80.919 33.663C81.3758 33.131 81.9716 32.865 82.7064 32.865C83.4068 32.865 83.9684 33.1112 84.3909 33.6035C84.8135 34.0918 85.0248 34.7449 85.0248 35.5628V35.7236Z" fill="#999999"/>
<path d="M90.6825 37.403L91.3507 37.004C91.4611 37.2978 91.621 37.5201 91.8304 37.671C92.0397 37.8179 92.2967 37.8913 92.6013 37.8913C92.8982 37.8913 93.1343 37.8139 93.3094 37.6591C93.4845 37.5002 93.5721 37.2898 93.5721 37.0278C93.5721 36.6228 93.2275 36.2794 92.5385 35.9975C92.4661 35.9697 92.409 35.9459 92.3671 35.9261C91.8342 35.7077 91.4611 35.4834 91.2479 35.2531C91.0347 35.0189 90.9281 34.731 90.9281 34.3896C90.9281 33.9409 91.0804 33.5737 91.3849 33.2878C91.6895 32.998 92.0835 32.8531 92.567 32.8531C92.9782 32.8531 93.3284 32.9464 93.6177 33.133C93.9071 33.3196 94.1184 33.5856 94.2516 33.931L93.6063 34.3062C93.5264 34.0561 93.3931 33.8655 93.2066 33.7345C93.02 33.6035 92.7916 33.538 92.5213 33.538C92.2777 33.538 92.0759 33.6134 91.916 33.7643C91.7599 33.9112 91.6819 34.0958 91.6819 34.3181C91.6819 34.5365 91.7599 34.7171 91.916 34.86C92.0721 35.003 92.3957 35.1598 92.8868 35.3305C93.4426 35.533 93.8157 35.7534 94.0061 35.9916C94.2002 36.2298 94.2973 36.5593 94.2973 36.9801C94.2973 37.4645 94.1317 37.8516 93.8005 38.1414C93.4693 38.4313 93.0238 38.5762 92.4642 38.5762C92.034 38.5762 91.6628 38.4749 91.3507 38.2725C91.0423 38.066 90.8196 37.7762 90.6825 37.403Z" fill="#999999"/>
<path d="M98.7508 37.8913C99.3066 37.8913 99.7768 37.6829 100.161 37.266C100.55 36.8452 100.744 36.331 100.744 35.7236C100.744 35.1082 100.552 34.5921 100.167 34.1752C99.7825 33.7583 99.3104 33.5499 98.7508 33.5499C98.195 33.5499 97.7248 33.7583 97.3403 34.1752C96.9558 34.5921 96.7635 35.1082 96.7635 35.7236C96.7635 36.331 96.9558 36.8452 97.3403 37.266C97.7248 37.6829 98.195 37.8913 98.7508 37.8913ZM98.728 38.5762C98.3663 38.5762 98.0199 38.5007 97.6886 38.3499C97.3574 38.203 97.0567 37.9906 96.7864 37.7127C96.5313 37.4506 96.3372 37.1489 96.2039 36.8074C96.0707 36.466 96.0041 36.1007 96.0041 35.7117C96.0041 35.3266 96.0726 34.9613 96.2096 34.6159C96.3467 34.2705 96.5427 33.9648 96.7978 33.6988C97.0567 33.4288 97.3517 33.2223 97.6829 33.0794C98.0141 32.9365 98.3625 32.865 98.728 32.865C99.101 32.865 99.4551 32.9365 99.7901 33.0794C100.129 33.2223 100.43 33.4288 100.692 33.6988C100.955 33.9687 101.155 34.2764 101.292 34.6218C101.433 34.9672 101.503 35.3305 101.503 35.7117C101.503 36.0928 101.435 36.4561 101.298 36.8015C101.161 37.1429 100.963 37.4467 100.704 37.7127C100.437 37.9906 100.133 38.203 99.7901 38.3499C99.4513 38.5007 99.0972 38.5762 98.728 38.5762Z" fill="#999999"/>
<path d="M104.432 38.3439H103.707V29.1132H104.432V38.3439Z" fill="#999999"/>
<path d="M107.761 33.0615V35.6998C107.761 36.5017 107.869 37.0675 108.086 37.397C108.307 37.7266 108.678 37.8913 109.2 37.8913C109.717 37.8913 110.089 37.7246 110.313 37.3911C110.538 37.0576 110.65 36.4938 110.65 35.6998V33.0615H111.347V36.0749C111.347 36.8968 111.166 37.5201 110.804 37.9449C110.443 38.3658 109.912 38.5762 109.211 38.5762C108.507 38.5762 107.972 38.3658 107.606 37.9449C107.241 37.5201 107.058 36.8968 107.058 36.0749V33.0615H107.761Z" fill="#999999"/>
<path d="M114.076 33.6868H113.145V33.0615H114.076V30.8938H114.767V33.0615H115.783V33.6868H114.767V38.3439H114.076V33.6868Z" fill="#999999"/>
<path d="M117.399 31.001C117.399 30.8462 117.452 30.7151 117.558 30.6079C117.665 30.4968 117.793 30.4412 117.941 30.4412C118.09 30.4412 118.217 30.4968 118.324 30.6079C118.434 30.7151 118.489 30.8462 118.489 31.001C118.489 31.1598 118.436 31.2928 118.329 31.4C118.227 31.5072 118.097 31.5608 117.941 31.5608C117.789 31.5608 117.659 31.5072 117.553 31.4C117.45 31.2928 117.399 31.1598 117.399 31.001ZM117.576 38.3439V33.0615H118.301V38.3439H117.576Z" fill="#999999"/>
<path d="M123.251 37.8913C123.807 37.8913 124.277 37.6829 124.662 37.266C125.05 36.8452 125.244 36.331 125.244 35.7236C125.244 35.1082 125.052 34.5921 124.667 34.1752C124.283 33.7583 123.811 33.5499 123.251 33.5499C122.695 33.5499 122.225 33.7583 121.841 34.1752C121.456 34.5921 121.264 35.1082 121.264 35.7236C121.264 36.331 121.456 36.8452 121.841 37.266C122.225 37.6829 122.695 37.8913 123.251 37.8913ZM123.228 38.5762C122.867 38.5762 122.52 38.5007 122.189 38.3499C121.858 38.203 121.557 37.9906 121.287 37.7127C121.032 37.4506 120.838 37.1489 120.704 36.8074C120.571 36.466 120.504 36.1007 120.504 35.7117C120.504 35.3266 120.573 34.9613 120.71 34.6159C120.847 34.2705 121.043 33.9648 121.298 33.6988C121.557 33.4288 121.852 33.2223 122.183 33.0794C122.514 32.9365 122.863 32.865 123.228 32.865C123.601 32.865 123.955 32.9365 124.29 33.0794C124.629 33.2223 124.93 33.4288 125.193 33.6988C125.455 33.9687 125.655 34.2764 125.792 34.6218C125.933 34.9672 126.004 35.3305 126.004 35.7117C126.004 36.0928 125.935 36.4561 125.798 36.8015C125.661 37.1429 125.463 37.4467 125.204 37.7127C124.938 37.9906 124.633 38.203 124.29 38.3499C123.952 38.5007 123.598 38.5762 123.228 38.5762Z" fill="#999999"/>
<path d="M128.161 38.3439V33.0615H128.83V33.8774C129.035 33.54 129.286 33.2878 129.583 33.1211C129.884 32.9504 130.229 32.865 130.617 32.865C131.192 32.865 131.639 33.0318 131.959 33.3653C132.279 33.6988 132.439 34.1633 132.439 34.7588V38.3439H131.725V35.0864C131.725 34.5583 131.618 34.1672 131.405 33.9132C131.196 33.6551 130.87 33.5261 130.429 33.5261C129.892 33.5261 129.496 33.6928 129.241 34.0263C128.99 34.3558 128.864 34.8759 128.864 35.5866V38.3439H128.161Z" fill="#999999"/>
<path d="M134.385 37.403L135.053 37.004C135.164 37.2978 135.324 37.5201 135.533 37.671C135.742 37.8179 135.999 37.8913 136.304 37.8913C136.601 37.8913 136.837 37.8139 137.012 37.6591C137.187 37.5002 137.275 37.2898 137.275 37.0278C137.275 36.6228 136.93 36.2794 136.241 35.9975C136.169 35.9697 136.112 35.9459 136.07 35.9261C135.537 35.7077 135.164 35.4834 134.951 35.2531C134.737 35.0189 134.631 34.731 134.631 34.3896C134.631 33.9409 134.783 33.5737 135.088 33.2878C135.392 32.998 135.786 32.8531 136.27 32.8531C136.681 32.8531 137.031 32.9464 137.32 33.133C137.61 33.3196 137.821 33.5856 137.954 33.931L137.309 34.3062C137.229 34.0561 137.096 33.8655 136.909 33.7345C136.723 33.6035 136.494 33.538 136.224 33.538C135.98 33.538 135.779 33.6134 135.619 33.7643C135.463 33.9112 135.385 34.0958 135.385 34.3181C135.385 34.5365 135.463 34.7171 135.619 34.86C135.775 35.003 136.098 35.1598 136.59 35.3305C137.145 35.533 137.518 35.7534 137.709 35.9916C137.903 36.2298 138 36.5593 138 36.9801C138 37.4645 137.834 37.8516 137.503 38.1414C137.172 38.4313 136.727 38.5762 136.167 38.5762C135.737 38.5762 135.366 38.4749 135.053 38.2725C134.745 38.066 134.522 37.7762 134.385 37.403Z" fill="#999999"/>
</svg>
