<svg width="138" height="41" viewBox="0 0 138 41" fill="none" xmlns="http://www.w3.org/2000/svg">
<path d="M0 8.43543C0 7.90362 0.196541 7.43828 0.589624 7.03942C0.956502 6.66715 1.4151 6.48102 1.96541 6.48102C2.43711 6.48102 2.89571 6.66715 3.3412 7.03942C3.70808 7.49147 3.89152 7.9568 3.89152 8.43543V26.0057C3.89152 26.5641 3.70808 27.0294 3.3412 27.4017C2.94812 27.8006 2.48952 28 1.96541 28C1.4151 28 0.956502 27.8006 0.589624 27.4017C0.196541 27.0294 0 26.5641 0 26.0057V8.43543Z" fill="white" fill-opacity="0.9"/>
<path d="M22.235 0.079771C22.7067 0.079771 23.1653 0.265906 23.6108 0.638176C24.0039 1.03704 24.2004 1.51567 24.2004 2.07407C24.2004 2.63248 24.0039 3.09782 23.6108 3.47009C23.2177 3.86895 22.7591 4.06838 22.235 4.06838H10.5211V12.0855V16.0741V25.9259C10.5211 26.4843 10.3246 26.9497 9.93152 27.3219C9.53844 27.7208 9.07985 27.9202 8.55574 27.9202C8.00542 27.9202 7.54682 27.7208 7.17995 27.3219C6.78686 26.9497 6.59032 26.4843 6.59032 25.9259V8.59498C6.59032 8.59498 6.60481 2.56847 6.66912 1.72075C6.86204 0.677403 8.00542 0.079771 8.55574 0.079771H22.235Z" fill="white" fill-opacity="0.9"/>
<path d="M47.4319 23.7721C44.7852 26.5375 41.575 27.9202 37.8014 27.9202C34.0278 27.9202 30.8176 26.5375 28.1709 23.7721C25.5241 21.0066 24.2007 17.7094 24.2007 13.8803C24.2007 10.1576 25.5241 6.91358 28.1709 4.14815C30.8176 1.4359 34.0278 0.079771 37.8014 0.079771C41.6012 0.079771 44.8114 1.4359 47.4319 4.14815C50.0787 6.91358 51.4021 10.1576 51.4021 13.8803C51.4021 17.7094 50.0787 21.0066 47.4319 23.7721ZM44.7197 6.8604C42.8067 4.91928 40.5006 3.94872 37.8014 3.94872C35.1022 3.94872 32.7962 4.91928 30.8831 6.8604C28.9701 8.80152 28.0136 11.1415 28.0136 13.8803C28.0136 16.7521 28.9701 19.1586 30.8831 21.0997C32.8224 23.0674 35.1284 24.0513 37.8014 24.0513C40.4744 24.0513 42.7805 23.0674 44.7197 21.0997C46.6589 19.0522 47.6285 16.6458 47.6285 13.8803C47.6285 11.1681 46.6589 8.82811 44.7197 6.8604Z" fill="white" fill-opacity="0.9"/>
<path d="M71.8621 24.9288C72.1503 25.3808 72.2289 25.8727 72.0979 26.4046C71.9669 26.963 71.6655 27.3884 71.1938 27.6809C70.9318 27.867 70.5911 27.9601 70.1718 27.9601C69.4905 27.9601 68.9271 27.641 68.4816 27.0028L61.9564 16.1538H57.9469V26.0057C57.9469 26.5641 57.7504 27.0294 57.3573 27.4017C56.9904 27.774 56.5318 27.9601 55.9815 27.9601C55.4312 27.9601 54.9726 27.774 54.6057 27.4017C54.2127 27.0294 54.0161 26.5641 54.0161 26.0057V2.15385C54.0161 1.62203 54.2127 1.15669 54.6057 0.757834C54.9988 0.358974 55.4705 0.159544 56.0208 0.159544H64.3542C66.4244 0.159544 68.2195 0.917379 69.7394 2.43305C71.3118 3.97531 72.1241 5.84995 72.1765 8.05698C72.1765 9.81197 71.6393 11.3941 70.5649 12.8034C69.5167 14.1861 68.1147 15.1966 66.3589 15.8348L71.8621 24.9288ZM64.197 12.1652C65.3238 12.1652 66.2803 11.7664 67.0665 10.9687C67.8264 10.1975 68.2326 9.24027 68.285 8.09687C68.2326 6.98006 67.8264 6.03609 67.0665 5.26496C66.3327 4.52042 65.3762 4.14815 64.197 4.14815H57.9469V12.1652H64.197Z" fill="white" fill-opacity="0.9"/>
<path d="M90.8698 0C91.3415 0 91.8001 0.186135 92.2456 0.558404C92.6124 1.01045 92.7959 1.48908 92.7959 1.9943C92.7959 2.47293 92.6124 2.93827 92.2456 3.39031C91.8001 3.76258 91.3415 3.94872 90.8698 3.94872H84.8949V26.0057C84.8949 26.5641 84.7115 27.0294 84.3446 27.4017C83.9515 27.8006 83.4929 28 82.9688 28C82.4185 28 81.9599 27.8006 81.593 27.4017C81.1999 27.0294 81.0034 26.5641 81.0034 26.0057V3.94872H75.0678C74.5175 3.94872 74.0589 3.76258 73.6921 3.39031C73.299 2.99145 73.1024 2.52612 73.1024 1.9943C73.1024 1.4359 73.299 0.957264 73.6921 0.558404C74.0589 0.186135 74.5175 0 75.0678 0H90.8698Z" fill="white" fill-opacity="0.9"/>
<path d="M110.917 23.9316C111.388 23.9316 111.847 24.1178 112.292 24.49C112.685 24.8889 112.882 25.3675 112.882 25.9259C112.882 26.4843 112.685 26.9497 112.292 27.3219C111.899 27.7208 111.441 27.9202 110.917 27.9202H97.1979C96.6476 27.9202 96.189 27.7208 95.8221 27.3219C95.429 26.9497 95.2325 26.4843 95.2325 25.9259V2.07407C95.2325 1.51567 95.429 1.03704 95.8221 0.638176C96.189 0.265906 96.6476 0.079771 97.1979 0.079771H110.917C111.388 0.079771 111.847 0.265906 112.292 0.638176C112.685 1.03704 112.882 1.51567 112.882 2.07407C112.882 2.63248 112.685 3.09782 112.292 3.47009C111.899 3.86895 111.441 4.06838 110.917 4.06838H99.1633V12.0855H108.126C108.597 12.0855 109.056 12.2716 109.501 12.6439C109.894 13.0427 110.091 13.5214 110.091 14.0798C110.091 14.6382 109.894 15.1035 109.501 15.4758C109.108 15.8746 108.65 16.0741 108.126 16.0741H99.1633V23.9316H110.917Z" fill="white" fill-opacity="0.9"/>
<path d="M137.467 24.6496C137.808 25.075 137.939 25.5669 137.86 26.1254C137.781 26.6572 137.532 27.0826 137.113 27.4017C136.746 27.6942 136.353 27.8405 135.934 27.8405C135.331 27.8405 134.82 27.5878 134.401 27.0826L126.775 17.2308L118.795 27.2023C118.376 27.7075 117.865 27.9601 117.262 27.9601C116.843 27.9601 116.45 27.8139 116.083 27.5214C115.664 27.2023 115.415 26.7768 115.336 26.245C115.258 25.6866 115.389 25.1947 115.729 24.7692L124.299 14L115.808 3.31054C115.467 2.88509 115.336 2.39316 115.415 1.83476C115.441 1.32953 115.69 0.890789 116.162 0.518519C116.581 0.17284 117.053 0.0398863 117.577 0.119659C118.101 0.19943 118.533 0.452041 118.874 0.877493L126.775 10.7692L134.519 0.877493C134.859 0.452041 135.292 0.19943 135.816 0.119659C136.34 0.0398863 136.812 0.17284 137.231 0.518519C137.703 0.890789 137.952 1.32953 137.978 1.83476C138.057 2.39316 137.925 2.88509 137.585 3.31054L129.251 14L137.467 24.6496Z" fill="white" fill-opacity="0.9"/>
<path d="M4 2C4 3.10457 3.10457 4 2 4C0.895431 4 0 3.10457 0 2C0 0.895431 0.895431 0 2 0C3.10457 0 4 0.895431 4 2Z" fill="#00FFCF"/>
<path d="M13 12H18V15H13V12Z" fill="#00FFCF"/>
<path d="M15 13.4783C15 14.3187 14.3284 15 13.5 15C12.6716 15 12 14.3187 12 13.4783C12 12.6379 12.6532 12 13.4816 12C14.3101 12 15 12.6379 15 13.4783Z" fill="#00FFCF"/>
<path d="M19 13.4783C19 14.3187 18.3284 15 17.5 15C16.6716 15 16 14.3187 16 13.4783C16 12.6379 16.6532 12 17.4816 12C18.3101 12 19 12.6379 19 13.4783Z" fill="#00FFCF"/>
</svg>
